<?xml version="1.0" encoding="UTF-8"?>
<svg xmlns="http://www.w3.org/2000/svg" xmlns:xlink="http://www.w3.org/1999/xlink" viewBox="0 0 48 48" width="48px" height="48px">
<g id="surface302914">
<path style=" stroke:none;fill-rule:nonzero;fill:rgb(31.37255%,37.254903%,47.450981%);fill-opacity:1;" d="M 8.421875 14 L 8.472656 14 C 11.261719 14 13 12 13 9.5 C 12.949219 6.945312 11.261719 5 8.527344 5 C 5.789062 5 4 6.945312 4 9.5 C 4 12 5.734375 14 8.421875 14 Z M 4 17 L 13 17 L 13 43 L 4 43 Z M 44 26.5 C 44 21.253906 39.746094 17 34.5 17 C 31.445312 17 28.738281 18.445312 27 20.683594 L 27 17 L 18 17 L 18 43 L 27 43 L 27 28 C 27 25.789062 28.789062 24 31 24 C 33.210938 24 35 25.789062 35 28 L 35 43 L 44 43 C 44 43 44 27.953125 44 26.5 Z M 44 26.5 "/>
</g>
</svg>
